<?xml version="1.0" encoding="UTF-8" standalone="no"?>
<!-- Created with Inkscape (http://www.inkscape.org/) -->

<svg version="1.1"
  width="201.89209mm"
  height="177.32518mm"
  viewBox="0 0 201.89209 177.32518"
  xml:space="preserve"
  xmlns:xlink="http://www.w3.org/1999/xlink"
  xmlns="http://www.w3.org/2000/svg"
  xmlns:svg="http://www.w3.org/2000/svg">
  <defs id="defs1">
    <linearGradient id="linearGradient">
      <stop style="stop-color:#b13d2d;stop-opacity:1;" offset="0.228" id="stop3" />
      <stop style="stop-color:#d8a09c;stop-opacity:1;" offset="0.77" id="stop4" />
    </linearGradient>
    <linearGradient xlink:href="#linearGradient"
        id="linearGradient4"
        x1="105"
        y1="211"
        x2="105"
        y2="18"
        gradientUnits="userSpaceOnUse" />
  </defs>
  <g style="display:inline" transform="translate(-4.5361092,-7.4666667)">
    <path style="fill:#ffffff;stroke:none;stroke-width:2;stroke-linecap:round;stroke-dasharray:none;stroke-opacity:1"
      d="m 100.68109,59.206016 -30.036947,0.06065 c -2.96195,0.006 -6.341926,-0.01387 -9.260417,2.02e-4 -1.112586,0.0054 -1.834219,0.04081 -2.910417,0.403003 -3.144503,1.058285 -6.949786,4.119145 -9.789583,5.991705 -6.946274,4.580365 -13.648849,9.085669 -20.637501,13.558265 -3.730681,2.387556 -7.477673,4.909067 -11.1125,7.328307 -2.943442,1.959078 -6.018526,3.891922 -8.9958338,5.922499 -1.5955028,1.08816 -2.4042021,1.425058 -2.4133021,3.308519 -0.00642,1.329368 0.4784325,2.187834 1.125704,2.9 1.5037126,1.654464 4.4532499,3.847254 6.3146819,5.454584 4.512658,3.89665 9.176985,7.99019 13.713419,11.90605 18.622806,16.07525 36.867526,32.67418 55.871999,48.68721 5.90375,4.97445 11.537507,10.25777 17.462597,15.21092 1.07792,0.90111 2.3986,2.15145 3.43959,2.98982 0.54618,0.43988 1.27425,1.09753 2.11666,1.05753 0.86269,-0.041 1.37621,-0.5122 2.11667,-1.07263 1.32374,-1.00191 2.73197,-2.35134 3.96875,-3.50145 4.51355,-4.1972 9.29761,-8.22123 14.02292,-12.17327 12.88227,-10.77416 25.33366,-22.14653 37.83541,-32.98187 4.54246,-3.93697 9.26791,-8.02612 13.75834,-11.9775 2.57216,-2.26337 5.07338,-4.32611 7.67291,-6.61458 1.7451,-1.53627 3.50833,-3.18473 5.29167,-4.68737 3.66938,-3.09181 7.36464,-6.23697 10.84792,-9.39639 1.69376,-1.53627 4.89363,-3.451879 4.58958,-6.065609 -0.23205,-1.994629 -3.67249,-3.886641 -5.11875,-4.785157 -5.20189,-3.231779 -10.81924,-7.167666 -16.13958,-10.510655 -7.43343,-4.670734 -14.40583,-9.438353 -21.69584,-14.206457 -2.95095,-1.930106 -6.52741,-4.993421 -9.78958,-6.191781 -0.97177,-0.356979 -1.6052,-0.49621 -2.64583,-0.54345 -2.90419,-0.131844 -6.949,0.403757 -9.90019,0.37344 l -30.33369,-0.311608 -1.58063,-6.321485 -2.83133,-34.692526 -2.7109,34.184681 z"
      />
  </g>
  <g transform="translate(-4.5361092,-7.4666667)" style="display:inline">
    <path style="fill:url(#linearGradient4)"
      d="m 84.466924,163.66203 c -3.442385,-2.07207 -4.552773,-5.70711 -4.590054,-9.51673 -0.661654,-6.54891 -0.727957,-13.0891 -0.99702,-19.66391 -0.601151,-4.7599 4.769329,-2.58499 7.360457,-1.56822 1.630178,3.49359 2.193355,6.46534 2.779618,10.22856 0.737917,7.11268 1.455558,14.24734 1.874312,21.37524 -0.221565,4.70033 -4.903051,0.72875 -6.427313,-0.85494 z m 36.460856,2.37991 c -1.14028,-4.04827 0.0218,-8.37928 0.23878,-12.51316 0.5334,-6.67302 1.41104,-13.30369 1.99109,-19.96828 0.70025,-3.94112 6.77198,-2.57389 9.39106,-1.65923 0.92892,3.7384 -0.63257,7.72409 -0.31272,11.58616 -0.45225,5.10371 -0.68709,10.25516 -1.48286,15.31234 -1.40514,3.29989 -4.62553,5.64242 -7.53718,7.5432 -0.75292,0.10416 -1.63255,0.18272 -2.28817,-0.30103 z m 18.48266,-15.921 c -0.82235,-4.07879 0.29676,-8.32491 0.80626,-12.40532 0.32184,-3.46836 0.58986,-8.15272 5.36571,-7.40556 5.02627,-0.70743 10.37392,-1.49009 14.64096,-4.4107 2.03663,-1.75257 -1.69967,-3.30875 -2.53072,-4.54925 -0.31928,-3.53837 -0.54522,-6.4026 1.96268,-9.05864 4.23712,-1.2504 8.16145,-3.05584 12.56011,-3.59899 3.52816,-2.11926 -3.75024,-2.6548 -5.095,-4.01977 -2.69268,-3.20721 -6.48505,-3.08637 -10.29492,-3.40627 -2.80282,-3.092971 4.34914,-9.484717 -2.14654,-10.349426 -9.4939,-3.500494 -19.30134,-6.191715 -28.60751,-10.171778 -3.8466,-2.264944 -2.88667,-7.674869 0.67527,-9.719039 4.44175,-3.00088 -6.1247,-4.901832 -1.13983,-7.862351 7.51598,-0.639544 15.09665,-0.213951 22.63761,-0.282583 4.36895,-0.46339 7.66374,2.836103 11.25506,4.742295 13.8674,8.570122 27.671,17.249413 41.34589,26.122669 3.85407,3.08977 -2.0773,6.354203 -4.10194,8.506523 -17.53793,15.85666 -35.47615,31.26292 -53.22964,46.87485 -1.03393,1.08093 -2.70319,2.01802 -4.10345,0.99334 z M 65.306583,147.04219 C 46.424162,130.57736 28.836654,114.43795 10.291503,97.59217 9.7898467,94.461559 11.69148,92.817767 13.888418,91.376724 28.42318,82.219799 42.878636,72.923631 57.593633,64.061331 c 4.104542,-2.071364 8.871562,-1.049907 13.296106,-1.324756 5.112769,0.197162 10.319931,-0.327248 15.36679,0.570877 3.847488,3.640828 -6.734344,4.528705 -1.64745,7.839519 4.113623,2.215957 3.794516,8.762364 -0.716782,10.291663 -9.701964,3.665892 -19.670314,6.598248 -29.359364,10.301705 -2.871408,2.281467 2.305617,6.553727 -0.240703,9.341791 -2.227455,0.72907 -4.643122,0.44759 -6.960819,0.65016 -2.121065,3.31479 -7.069797,3.8368 -10.338928,5.45851 0.984532,2.76109 6.886495,2.63272 9.559502,3.99763 3.758511,0.5972 7.935858,1.02466 7.697862,5.60129 1.568055,3.37564 0.349074,6.74864 -3.290821,7.73601 -0.159073,3.39763 6.124678,3.69838 8.990053,4.79474 3.046018,0.91896 5.278805,1.67589 8.245787,2.77908 2.451468,3.48227 2.409952,7.43939 3.612261,11.47009 1.074838,3.03514 0.16727,9.3452 -4.004071,5.58876 -0.848136,-0.68629 -1.669433,-1.40492 -2.496473,-2.11621 z"
      />
  </g>
  <g transform="translate(-4.5361092,-7.4666667)" style="display:inline">
    <path style="fill:none;stroke:#b22200;stroke-width:2;stroke-linecap:round;stroke-dasharray:none;stroke-opacity:1"
      d="m 105.56875,8.4666667 c -0.22794,4.4341163 0.68214,9.1379783 -1.28369,13.2679623 0.11539,6.07127 -0.28052,12.109972 -1.01706,18.126766 -0.18087,4.319168 0.12575,8.681504 -0.389,12.972847 -3.622397,2.503842 0.23391,9.375688 -5.007784,9.357713 -4.357799,0.265967 -11.232564,-1.839192 -11.346524,3.899342 -3.022835,1.116231 -5.82444,4.274479 -1.59339,6.219378 5.078471,3.701068 0.333581,9.700984 -4.514092,10.110991 -6.997679,2.107153 -13.782341,4.873754 -20.890774,6.628797 -4.86275,0.718908 -8.819836,3.99828 -5.458813,8.794557 2.209019,6.43269 -6.81535,0.673943 -8.43401,4.8796 -1.441418,3.33042 -11.300841,2.01705 -7.950311,6.56467 4.475232,0.97762 9.096677,1.54418 13.520683,2.99005 3.063786,2.95864 5.079891,10.84301 -1.116602,11.68953 -1.52778,4.86323 7.194902,5.31366 10.676059,6.73166 3.657897,0.73848 9.844009,-0.43392 9.217827,5.2932 -0.04334,4.51277 1.714233,8.97809 0.905568,13.45133 M 105.56875,19.314583 c 2.35317,4.086512 1.40778,9.209801 1.84821,13.758334 -0.15412,6.660379 0.57997,13.282766 0.93496,19.919718 2.55377,3.198988 -0.22584,10.853191 6.4652,9.204594 4.59989,-0.72195 8.76434,1.082491 13.22678,1.037982 7.44542,0.01953 14.89977,-0.02081 22.33782,-0.01359 4.99555,1.288837 8.81569,5.170841 13.29834,7.57008 12.33269,7.836085 24.51789,15.905668 36.86261,23.719869 3.08965,4.423603 -5.66218,7.41079 -7.95267,10.66047 -16.99744,14.39498 -33.47906,29.39902 -50.40517,43.86819 -5.02599,2.04168 -0.85218,-6.44802 -1.53925,-9.24627 0.1455,-4.3321 0.69954,-10.00231 6.47637,-8.62975 4.46797,-0.57499 8.90372,-1.87769 12.95538,-3.81161 4.96697,-4.03947 -4.98484,-1.8849 -2.7074,-9.48263 2.08796,-7.76409 0.56572,-5.39409 9.58225,-7.48299 3.38504,-0.2961 11.04296,-2.72973 4.47146,-4.54803 -4.80957,-0.57104 -7.2211,-6.635997 -12.47786,-4.5751 -6.05098,-0.3033 2.57574,-8.234866 -2.26826,-10.077272 -6.0156,-2.634619 -12.55641,-3.845218 -18.64646,-6.324938 -4.71496,-2.383288 -12.83762,-1.870694 -14.17579,-8.198489 -0.95765,-3.872587 8.26201,-6.523266 2.64247,-9.290661 -1.67763,-0.46681 -3.00995,-2.071506 -2.40805,-3.872466 m -13.7953,-4.233333 c 13.56798,0.04715 27.14225,-0.0927 40.70521,0.06506 5.84609,1.285223 10.00875,6.093513 15.11654,8.915233 12.40645,8.273157 24.99536,16.275804 37.45322,24.464003 6.00801,5.083554 -4.19044,9.398743 -7.15914,13.004513 -21.50709,18.4863 -42.77275,37.25472 -64.12596,55.91975 -8.30433,6.97133 -16.57084,13.99341 -24.59835,21.2774 -3.60966,3.09601 -6.43879,-2.80941 -9.332132,-4.37597 C 81.653187,163.80395 64.561753,149.5202 47.963135,134.6692 34.30013,122.55071 20.427405,110.65351 6.6502931,98.679167 2.7761918,93.916383 9.9770681,91.406745 13.014078,89.114756 27.119714,79.768861 41.372724,70.638537 55.381379,61.151328 59.897818,58.070553 65.550503,59.646417 70.644143,59.266667 H 100.80239 M 70.882676,149.43826 c -4.156944,-0.76982 -6.602387,-4.8363 -9.955055,-7.10757 -7.611783,-6.60505 -14.7634,-13.73553 -22.591857,-20.10185 C 28.854169,114.21044 19.38494,106.1636 10.145219,97.872151 7.6821871,93.796307 14.878221,92.561976 17.097273,90.213481 30.944121,81.444397 44.514028,72.215386 58.559762,63.772454 62.647288,62.554325 67.030445,63.48986 71.257719,63.23542 H 87.083 m -7.359303,69.06359 c 4.131253,-1.61129 8.870619,0.1803 7.894849,5.28269 0.720334,5.3613 0.682039,10.79073 1.535623,16.14122 -0.793528,3.80975 2.466611,9.50372 -0.168872,12.14602 -1.312271,0.27332 -8.450732,-5.21334 -8.046477,-10.02936 -1.138807,-5.94009 -0.735123,-12.03029 -1.732378,-17.98713 0.128724,-1.78691 -0.712479,-4.07634 0.517255,-5.55344 z m 41.455473,33.33016 c -0.17104,-7.20941 1.52002,-14.27515 1.60016,-21.47099 0.358,-4.49802 -0.98492,-9.52674 2.52171,-12.09324 3.47547,-0.53909 8.6869,-1.82697 6.65384,4.76207 -1.01034,6.21618 -1.16166,12.55334 -1.3376,18.84068 -0.23882,5.13988 -4.86792,8.47946 -9.0993,10.47205 -0.033,0.15247 -0.54469,-0.49981 -0.22486,-0.31125"
      />
  </g>
</svg>
